<?xml version="1.0" standalone="no"?>
<!DOCTYPE svg PUBLIC "-//W3C//DTD SVG 20010904//EN"
 "http://www.w3.org/TR/2001/REC-SVG-20010904/DTD/svg10.dtd">
<svg version="1.0" xmlns="http://www.w3.org/2000/svg"
 width="512.000000pt" height="512.000000pt" viewBox="0 0 512.000000 512.000000"
 preserveAspectRatio="xMidYMid meet">
<metadata>
Created by potrace 1.14, written by Peter Selinger 2001-2017
</metadata>
<g transform="translate(0.000000,512.000000) scale(0.100000,-0.100000)"
fill="#000000" stroke="none">
<path d="M0 2560 l0 -2560 2560 0 2560 0 0 2560 0 2560 -2560 0 -2560 0 0
-2560z m2754 1319 c352 -47 647 -264 741 -542 34 -103 34 -159 -2 -187 -26
-20 -36 -21 -234 -18 -239 3 -233 1 -268 98 -39 106 -146 189 -291 226 -97 25
-303 16 -387 -17 -143 -56 -203 -134 -203 -263 1 -198 116 -272 645 -410 321
-84 479 -144 600 -230 170 -122 245 -276 245 -506 0 -172 -47 -312 -147 -435
-184 -227 -545 -351 -969 -331 -512 23 -875 255 -950 604 -19 90 -18 115 7
146 l20 26 207 0 c242 0 231 3 287 -108 59 -116 157 -190 305 -229 90 -23 337
-23 434 0 210 52 321 188 286 350 -31 148 -136 209 -555 323 -488 134 -650
205 -778 344 -108 116 -152 246 -151 445 0 115 3 139 27 209 47 133 106 218
215 305 221 177 550 249 916 200z"/>
</g>
</svg>
